<?xml version="1.0" encoding="UTF-8"?>
<svg xmlns="http://www.w3.org/2000/svg" xmlns:xlink="http://www.w3.org/1999/xlink" width="148" height="56" viewBox="114 46 148 56">
<path fill-rule="nonzero" fill="rgb(95.97168%, 85.844421%, 0.947571%)" fill-opacity="1" d="M 122.984375 48.6875 L 252.914062 48.6875 C 256.746094 48.6875 259.851562 51.792969 259.851562 55.625 L 259.851562 92.082031 C 259.851562 95.914062 256.746094 99.019531 252.914062 99.019531 L 122.984375 99.019531 C 119.152344 99.019531 116.046875 95.914062 116.046875 92.082031 L 116.046875 55.625 C 116.046875 51.792969 119.152344 48.6875 122.984375 48.6875 "/>
<path fill-rule="nonzero" fill="rgb(13.729858%, 12.159729%, 12.548828%)" fill-opacity="1" d="M 139.992188 65.769531 L 140.90625 62.351562 C 141.644531 59.601562 140.800781 58.28125 138.523438 58.28125 C 136.25 58.28125 134.699219 59.601562 133.960938 62.351562 L 133.046875 65.769531 C 132.308594 68.523438 133.121094 69.960938 135.394531 69.960938 C 137.671875 69.960938 139.253906 68.523438 139.992188 65.769531 M 135.160156 84.691406 L 136.234375 80.679688 C 137.085938 77.503906 136.246094 75.949219 133.789062 75.949219 C 131.332031 75.949219 129.664062 77.503906 128.808594 80.679688 L 127.734375 84.691406 C 126.882812 87.867188 127.726562 89.421875 130.179688 89.421875 C 132.636719 89.421875 134.308594 87.867188 135.160156 84.691406 M 121.054688 85.054688 L 122.050781 81.339844 C 123.125 77.328125 125.105469 74.390625 128.65625 72.773438 L 128.683594 72.65625 C 126.332031 71.160156 125.722656 68.523438 126.828125 64.390625 L 127.328125 62.535156 C 129.121094 55.824219 133.726562 52.292969 140.128906 52.292969 C 146.535156 52.292969 149.238281 55.824219 147.441406 62.535156 L 146.945312 64.390625 C 145.839844 68.523438 143.757812 71.160156 140.660156 72.65625 L 140.628906 72.773438 C 143.308594 74.390625 143.71875 77.328125 142.644531 81.339844 L 141.648438 85.054688 C 139.851562 91.757812 135.21875 95.414062 128.574219 95.414062 C 121.929688 95.414062 119.257812 91.757812 121.054688 85.054688 "/>
<path fill-rule="nonzero" fill="rgb(13.729858%, 12.159729%, 12.548828%)" fill-opacity="1" d="M 144.421875 84.988281 L 145.335938 81.578125 L 151.5625 81.578125 L 150.566406 85.292969 C 149.765625 88.285156 150.777344 89.421875 152.875 89.421875 C 154.96875 89.421875 156.558594 88.40625 157.554688 84.691406 L 158.46875 81.277344 C 159.511719 77.386719 158.578125 75.949219 155.589844 75.949219 L 153.371094 75.949219 L 154.976562 69.960938 L 157.371094 69.960938 C 159.828125 69.960938 161.609375 68.882812 162.507812 65.527344 L 163.328125 62.476562 C 164.128906 59.480469 163.074219 58.28125 161.15625 58.28125 C 159.242188 58.28125 157.679688 59.417969 156.941406 62.175781 L 156.203125 64.929688 L 149.976562 64.929688 L 150.570312 62.714844 C 152.367188 56.007812 156.714844 52.292969 163.003906 52.292969 C 169.289062 52.292969 171.664062 55.945312 169.867188 62.652344 L 169.464844 64.148438 C 168.261719 68.644531 166.085938 71.398438 162.53125 72.597656 L 162.5 72.714844 C 165.679688 74.03125 166.179688 77.085938 165.039062 81.339844 L 164.042969 85.054688 C 162.246094 91.761719 157.914062 95.414062 151.445312 95.414062 C 144.980469 95.414062 142.625 91.699219 144.421875 84.988281 "/>
<path fill-rule="nonzero" fill="rgb(13.729858%, 12.159729%, 12.548828%)" fill-opacity="1" d="M 184.664062 69.78125 L 186.652344 62.351562 C 187.390625 59.601562 186.605469 58.28125 184.332031 58.28125 C 182.054688 58.28125 180.566406 59.601562 179.828125 62.351562 L 177.839844 69.78125 C 177.082031 72.59375 177.863281 73.914062 180.144531 73.914062 C 182.414062 73.914062 183.90625 72.59375 184.664062 69.78125 M 167.328125 84.871094 L 167.535156 84.09375 L 173.761719 84.09375 L 173.441406 85.292969 C 172.640625 88.289062 173.652344 89.425781 175.75 89.425781 C 178.082031 89.425781 179.703125 88.289062 180.777344 84.273438 L 182.929688 76.25 C 180.953125 78.707031 178.597656 79.902344 175.84375 79.902344 C 170.992188 79.902344 169.457031 76.488281 171.105469 70.316406 L 173.113281 62.832031 C 174.910156 56.125 179.472656 52.292969 185.9375 52.292969 C 192.40625 52.292969 194.90625 56.125 193.109375 62.832031 L 187.300781 84.515625 C 185.40625 91.582031 181.144531 95.414062 174.320312 95.414062 C 167.855469 95.414062 165.53125 91.582031 167.328125 84.871094 "/>
<path fill-rule="nonzero" fill="rgb(13.729858%, 12.159729%, 12.548828%)" fill-opacity="1" d="M 216.253906 52.292969 L 203.667969 52.292969 L 192.292969 95.414062 L 204.878906 95.414062 Z M 255.390625 52.292969 L 242.808594 52.292969 L 231.429688 95.414062 L 244.015625 95.414062 Z M 235.417969 52.292969 L 222.832031 52.292969 L 211.457031 95.414062 L 224.042969 95.414062 Z M 235.417969 52.292969 "/>
</svg>
