<?xml version="1.0" encoding="UTF-8"?>
<svg xmlns="http://www.w3.org/2000/svg" xmlns:xlink="http://www.w3.org/1999/xlink" width="113" height="41" viewBox="119 53 113 41">
<defs>
<clipPath id="clip-0">
<path clip-rule="nonzero" d="M 161 79 L 219 79 L 219 87 L 161 87 Z M 161 79 "/>
</clipPath>
<clipPath id="clip-1">
<path clip-rule="nonzero" d="M 216.507812 79.015625 L 214.464844 86.761719 L 216.726562 86.761719 L 218.769531 79.015625 Z M 212.414062 79.015625 L 210.371094 86.761719 L 212.632812 86.761719 L 214.675781 79.015625 Z M 208.320312 79.015625 L 206.277344 86.761719 L 208.539062 86.761719 L 210.582031 79.015625 Z M 204.226562 79.015625 L 202.183594 86.761719 L 204.441406 86.761719 L 206.484375 79.015625 Z M 200.128906 79.015625 L 198.085938 86.761719 L 200.347656 86.761719 L 202.390625 79.015625 Z M 196.039062 79.015625 L 193.992188 86.761719 L 196.253906 86.761719 L 198.296875 79.015625 Z M 191.941406 79.015625 L 189.898438 86.761719 L 192.160156 86.761719 L 194.203125 79.015625 Z M 187.847656 79.015625 L 185.804688 86.761719 L 188.066406 86.761719 L 190.109375 79.015625 Z M 183.753906 79.015625 L 181.710938 86.761719 L 183.96875 86.761719 L 186.015625 79.015625 Z M 179.660156 79.015625 L 177.617188 86.761719 L 179.878906 86.761719 L 181.917969 79.015625 Z M 175.566406 79.015625 L 173.523438 86.761719 L 175.78125 86.761719 L 177.824219 79.015625 Z M 171.46875 79.015625 L 169.425781 86.761719 L 171.6875 86.761719 L 173.730469 79.015625 Z M 167.378906 79.015625 L 165.332031 86.761719 L 167.59375 86.761719 L 169.636719 79.015625 Z M 163.28125 79.015625 L 161.238281 86.761719 L 163.5 86.761719 L 165.542969 79.015625 Z M 163.28125 79.015625 "/>
</clipPath>
<linearGradient id="linear-pattern-0" gradientUnits="userSpaceOnUse" x1="-0.00000624737" y1="0" x2="0.99999" y2="0" gradientTransform="matrix(57.530559, 0, 0, 57.530559, 161.238706, 82.88908)">
<stop offset="0" stop-color="rgb(95.97168%, 85.844421%, 0.947571%)" stop-opacity="1"/>
<stop offset="0.0078125" stop-color="rgb(95.970154%, 85.879517%, 1.062012%)" stop-opacity="1"/>
<stop offset="0.015625" stop-color="rgb(95.96405%, 85.948181%, 1.290894%)" stop-opacity="1"/>
<stop offset="0.0234375" stop-color="rgb(95.957947%, 86.016846%, 1.519775%)" stop-opacity="1"/>
<stop offset="0.03125" stop-color="rgb(95.953369%, 86.083984%, 1.748657%)" stop-opacity="1"/>
<stop offset="0.0390625" stop-color="rgb(95.947266%, 86.152649%, 1.977539%)" stop-opacity="1"/>
<stop offset="0.046875" stop-color="rgb(95.942688%, 86.221313%, 2.206421%)" stop-opacity="1"/>
<stop offset="0.0546875" stop-color="rgb(95.935059%, 86.289978%, 2.435303%)" stop-opacity="1"/>
<stop offset="0.0625" stop-color="rgb(95.932007%, 86.360168%, 2.66571%)" stop-opacity="1"/>
<stop offset="0.0703125" stop-color="rgb(95.924377%, 86.427307%, 2.896118%)" stop-opacity="1"/>
<stop offset="0.078125" stop-color="rgb(95.9198%, 86.497498%, 3.125%)" stop-opacity="1"/>
<stop offset="0.0859375" stop-color="rgb(95.913696%, 86.564636%, 3.355408%)" stop-opacity="1"/>
<stop offset="0.09375" stop-color="rgb(95.907593%, 86.634827%, 3.585815%)" stop-opacity="1"/>
<stop offset="0.101563" stop-color="rgb(95.901489%, 86.703491%, 3.817749%)" stop-opacity="1"/>
<stop offset="0.109375" stop-color="rgb(95.895386%, 86.772156%, 4.048157%)" stop-opacity="1"/>
<stop offset="0.117187" stop-color="rgb(95.890808%, 86.842346%, 4.278564%)" stop-opacity="1"/>
<stop offset="0.125" stop-color="rgb(95.884705%, 86.911011%, 4.510498%)" stop-opacity="1"/>
<stop offset="0.132812" stop-color="rgb(95.877075%, 86.978149%, 4.742432%)" stop-opacity="1"/>
<stop offset="0.140625" stop-color="rgb(95.872498%, 87.04834%, 4.974365%)" stop-opacity="1"/>
<stop offset="0.148438" stop-color="rgb(95.864868%, 87.117004%, 5.206299%)" stop-opacity="1"/>
<stop offset="0.15625" stop-color="rgb(95.860291%, 87.187195%, 5.438232%)" stop-opacity="1"/>
<stop offset="0.164062" stop-color="rgb(95.854187%, 87.255859%, 5.670166%)" stop-opacity="1"/>
<stop offset="0.171875" stop-color="rgb(95.848083%, 87.32605%, 5.903625%)" stop-opacity="1"/>
<stop offset="0.179688" stop-color="rgb(95.84198%, 87.394714%, 6.137085%)" stop-opacity="1"/>
<stop offset="0.1875" stop-color="rgb(95.835876%, 87.464905%, 6.370544%)" stop-opacity="1"/>
<stop offset="0.195312" stop-color="rgb(95.829773%, 87.533569%, 6.604004%)" stop-opacity="1"/>
<stop offset="0.203125" stop-color="rgb(95.823669%, 87.60376%, 6.837463%)" stop-opacity="1"/>
<stop offset="0.210938" stop-color="rgb(95.81604%, 87.672424%, 7.072449%)" stop-opacity="1"/>
<stop offset="0.21875" stop-color="rgb(95.809937%, 87.742615%, 7.305908%)" stop-opacity="1"/>
<stop offset="0.226562" stop-color="rgb(95.803833%, 87.811279%, 7.539368%)" stop-opacity="1"/>
<stop offset="0.234375" stop-color="rgb(95.796204%, 87.88147%, 7.774353%)" stop-opacity="1"/>
<stop offset="0.242188" stop-color="rgb(95.7901%, 87.95166%, 8.010864%)" stop-opacity="1"/>
<stop offset="0.25" stop-color="rgb(95.782471%, 88.020325%, 8.244324%)" stop-opacity="1"/>
<stop offset="0.257813" stop-color="rgb(95.777893%, 88.092041%, 8.479309%)" stop-opacity="1"/>
<stop offset="0.265625" stop-color="rgb(95.770264%, 88.160706%, 8.71582%)" stop-opacity="1"/>
<stop offset="0.273438" stop-color="rgb(95.765686%, 88.232422%, 8.952332%)" stop-opacity="1"/>
<stop offset="0.28125" stop-color="rgb(95.756531%, 88.299561%, 9.187317%)" stop-opacity="1"/>
<stop offset="0.289062" stop-color="rgb(95.750427%, 88.371277%, 9.423828%)" stop-opacity="1"/>
<stop offset="0.296875" stop-color="rgb(95.744324%, 88.439941%, 9.660339%)" stop-opacity="1"/>
<stop offset="0.304688" stop-color="rgb(95.73822%, 88.511658%, 9.895325%)" stop-opacity="1"/>
<stop offset="0.3125" stop-color="rgb(95.730591%, 88.580322%, 10.133362%)" stop-opacity="1"/>
<stop offset="0.320312" stop-color="rgb(95.724487%, 88.652039%, 10.371399%)" stop-opacity="1"/>
<stop offset="0.328125" stop-color="rgb(95.716858%, 88.720703%, 10.60791%)" stop-opacity="1"/>
<stop offset="0.335938" stop-color="rgb(95.710754%, 88.790894%, 10.844421%)" stop-opacity="1"/>
<stop offset="0.34375" stop-color="rgb(95.703125%, 88.861084%, 11.082458%)" stop-opacity="1"/>
<stop offset="0.351562" stop-color="rgb(95.697021%, 88.9328%, 11.322021%)" stop-opacity="1"/>
<stop offset="0.359375" stop-color="rgb(95.689392%, 89.002991%, 11.558533%)" stop-opacity="1"/>
<stop offset="0.367187" stop-color="rgb(95.683289%, 89.073181%, 11.798096%)" stop-opacity="1"/>
<stop offset="0.375" stop-color="rgb(95.675659%, 89.143372%, 12.036133%)" stop-opacity="1"/>
<stop offset="0.382813" stop-color="rgb(95.66803%, 89.213562%, 12.275696%)" stop-opacity="1"/>
<stop offset="0.390625" stop-color="rgb(95.661926%, 89.283752%, 12.513733%)" stop-opacity="1"/>
<stop offset="0.398438" stop-color="rgb(95.654297%, 89.355469%, 12.753296%)" stop-opacity="1"/>
<stop offset="0.40625" stop-color="rgb(95.646667%, 89.425659%, 12.994385%)" stop-opacity="1"/>
<stop offset="0.414062" stop-color="rgb(95.639038%, 89.49585%, 13.233948%)" stop-opacity="1"/>
<stop offset="0.421875" stop-color="rgb(95.632935%, 89.56604%, 13.473511%)" stop-opacity="1"/>
<stop offset="0.429688" stop-color="rgb(95.625305%, 89.63623%, 13.713074%)" stop-opacity="1"/>
<stop offset="0.4375" stop-color="rgb(95.617676%, 89.707947%, 13.954163%)" stop-opacity="1"/>
<stop offset="0.445312" stop-color="rgb(95.610046%, 89.778137%, 14.193726%)" stop-opacity="1"/>
<stop offset="0.453125" stop-color="rgb(95.603943%, 89.849854%, 14.434814%)" stop-opacity="1"/>
<stop offset="0.460938" stop-color="rgb(95.594788%, 89.92157%, 14.677429%)" stop-opacity="1"/>
<stop offset="0.46875" stop-color="rgb(95.59021%, 89.993286%, 14.918518%)" stop-opacity="1"/>
<stop offset="0.476562" stop-color="rgb(95.581055%, 90.061951%, 15.159607%)" stop-opacity="1"/>
<stop offset="0.484375" stop-color="rgb(95.573425%, 90.133667%, 15.402222%)" stop-opacity="1"/>
<stop offset="0.492187" stop-color="rgb(95.565796%, 90.205383%, 15.643311%)" stop-opacity="1"/>
<stop offset="0.5" stop-color="rgb(95.558167%, 90.2771%, 15.885925%)" stop-opacity="1"/>
<stop offset="0.507812" stop-color="rgb(95.552063%, 90.34729%, 16.12854%)" stop-opacity="1"/>
<stop offset="0.515625" stop-color="rgb(95.544434%, 90.419006%, 16.371155%)" stop-opacity="1"/>
<stop offset="0.523438" stop-color="rgb(95.535278%, 90.489197%, 16.615295%)" stop-opacity="1"/>
<stop offset="0.53125" stop-color="rgb(95.529175%, 90.560913%, 16.856384%)" stop-opacity="1"/>
<stop offset="0.539062" stop-color="rgb(95.52002%, 90.632629%, 17.100525%)" stop-opacity="1"/>
<stop offset="0.546875" stop-color="rgb(95.513916%, 90.704346%, 17.344666%)" stop-opacity="1"/>
<stop offset="0.554688" stop-color="rgb(95.504761%, 90.776062%, 17.58728%)" stop-opacity="1"/>
<stop offset="0.5625" stop-color="rgb(95.497131%, 90.847778%, 17.832947%)" stop-opacity="1"/>
<stop offset="0.570313" stop-color="rgb(95.489502%, 90.917969%, 18.077087%)" stop-opacity="1"/>
<stop offset="0.578125" stop-color="rgb(95.481873%, 90.989685%, 18.321228%)" stop-opacity="1"/>
<stop offset="0.585937" stop-color="rgb(95.474243%, 91.061401%, 18.565369%)" stop-opacity="1"/>
<stop offset="0.59375" stop-color="rgb(95.466614%, 91.134644%, 18.811035%)" stop-opacity="1"/>
<stop offset="0.601562" stop-color="rgb(95.457458%, 91.204834%, 19.056702%)" stop-opacity="1"/>
<stop offset="0.609375" stop-color="rgb(95.449829%, 91.27655%, 19.300842%)" stop-opacity="1"/>
<stop offset="0.617188" stop-color="rgb(95.440674%, 91.348267%, 19.546509%)" stop-opacity="1"/>
<stop offset="0.625" stop-color="rgb(95.433044%, 91.419983%, 19.792175%)" stop-opacity="1"/>
<stop offset="0.632812" stop-color="rgb(95.425415%, 91.491699%, 20.039368%)" stop-opacity="1"/>
<stop offset="0.640625" stop-color="rgb(95.41626%, 91.563416%, 20.285034%)" stop-opacity="1"/>
<stop offset="0.648438" stop-color="rgb(95.40863%, 91.636658%, 20.532227%)" stop-opacity="1"/>
<stop offset="0.65625" stop-color="rgb(95.399475%, 91.708374%, 20.779419%)" stop-opacity="1"/>
<stop offset="0.664063" stop-color="rgb(95.393372%, 91.78009%, 21.026611%)" stop-opacity="1"/>
<stop offset="0.671875" stop-color="rgb(95.384216%, 91.851807%, 21.272278%)" stop-opacity="1"/>
<stop offset="0.679687" stop-color="rgb(95.375061%, 91.925049%, 21.520996%)" stop-opacity="1"/>
<stop offset="0.6875" stop-color="rgb(95.367432%, 91.996765%, 21.768188%)" stop-opacity="1"/>
<stop offset="0.695312" stop-color="rgb(95.359802%, 92.068481%, 22.015381%)" stop-opacity="1"/>
<stop offset="0.703125" stop-color="rgb(95.350647%, 92.141724%, 22.264099%)" stop-opacity="1"/>
<stop offset="0.710938" stop-color="rgb(95.343018%, 92.214966%, 22.512817%)" stop-opacity="1"/>
<stop offset="0.71875" stop-color="rgb(95.332336%, 92.285156%, 22.761536%)" stop-opacity="1"/>
<stop offset="0.726562" stop-color="rgb(95.326233%, 92.358398%, 23.008728%)" stop-opacity="1"/>
<stop offset="0.734375" stop-color="rgb(95.315552%, 92.430115%, 23.258972%)" stop-opacity="1"/>
<stop offset="0.742188" stop-color="rgb(95.309448%, 92.503357%, 23.50769%)" stop-opacity="1"/>
<stop offset="0.75" stop-color="rgb(95.298767%, 92.575073%, 23.756409%)" stop-opacity="1"/>
<stop offset="0.757812" stop-color="rgb(95.291138%, 92.648315%, 24.006653%)" stop-opacity="1"/>
<stop offset="0.765625" stop-color="rgb(95.281982%, 92.720032%, 24.256897%)" stop-opacity="1"/>
<stop offset="0.773438" stop-color="rgb(95.274353%, 92.793274%, 24.507141%)" stop-opacity="1"/>
<stop offset="0.78125" stop-color="rgb(95.265198%, 92.866516%, 24.757385%)" stop-opacity="1"/>
<stop offset="0.789062" stop-color="rgb(95.256042%, 92.939758%, 25.007629%)" stop-opacity="1"/>
<stop offset="0.796875" stop-color="rgb(95.246887%, 93.011475%, 25.259399%)" stop-opacity="1"/>
<stop offset="0.804688" stop-color="rgb(95.237732%, 93.084717%, 25.508118%)" stop-opacity="1"/>
<stop offset="0.8125" stop-color="rgb(95.228577%, 93.156433%, 25.759888%)" stop-opacity="1"/>
<stop offset="0.820313" stop-color="rgb(95.220947%, 93.229675%, 26.011658%)" stop-opacity="1"/>
<stop offset="0.828125" stop-color="rgb(95.211792%, 93.302917%, 26.264954%)" stop-opacity="1"/>
<stop offset="0.835937" stop-color="rgb(95.201111%, 93.37616%, 26.515198%)" stop-opacity="1"/>
<stop offset="0.84375" stop-color="rgb(95.193481%, 93.449402%, 26.768494%)" stop-opacity="1"/>
<stop offset="0.851562" stop-color="rgb(95.184326%, 93.522644%, 27.020264%)" stop-opacity="1"/>
<stop offset="0.859375" stop-color="rgb(95.176697%, 93.59436%, 27.27356%)" stop-opacity="1"/>
<stop offset="0.867188" stop-color="rgb(95.166016%, 93.667603%, 27.52533%)" stop-opacity="1"/>
<stop offset="0.875" stop-color="rgb(95.15686%, 93.740845%, 27.778625%)" stop-opacity="1"/>
<stop offset="0.882812" stop-color="rgb(95.147705%, 93.814087%, 28.031921%)" stop-opacity="1"/>
<stop offset="0.890625" stop-color="rgb(95.13855%, 93.888855%, 28.285217%)" stop-opacity="1"/>
<stop offset="0.898438" stop-color="rgb(95.129395%, 93.962097%, 28.538513%)" stop-opacity="1"/>
<stop offset="0.90625" stop-color="rgb(95.120239%, 94.035339%, 28.793335%)" stop-opacity="1"/>
<stop offset="0.914063" stop-color="rgb(95.109558%, 94.107056%, 29.048157%)" stop-opacity="1"/>
<stop offset="0.921875" stop-color="rgb(95.101929%, 94.181824%, 29.301453%)" stop-opacity="1"/>
<stop offset="0.929687" stop-color="rgb(95.091248%, 94.255066%, 29.556274%)" stop-opacity="1"/>
<stop offset="0.9375" stop-color="rgb(95.083618%, 94.329834%, 29.811096%)" stop-opacity="1"/>
<stop offset="0.945312" stop-color="rgb(95.072937%, 94.403076%, 30.064392%)" stop-opacity="1"/>
<stop offset="0.953125" stop-color="rgb(95.063782%, 94.476318%, 30.32074%)" stop-opacity="1"/>
<stop offset="0.960938" stop-color="rgb(95.054626%, 94.549561%, 30.577087%)" stop-opacity="1"/>
<stop offset="0.96875" stop-color="rgb(95.045471%, 94.624329%, 30.833435%)" stop-opacity="1"/>
<stop offset="0.976562" stop-color="rgb(95.036316%, 94.697571%, 31.086731%)" stop-opacity="1"/>
<stop offset="0.984375" stop-color="rgb(95.025635%, 94.772339%, 31.344604%)" stop-opacity="1"/>
<stop offset="0.992188" stop-color="rgb(95.014954%, 94.845581%, 31.600952%)" stop-opacity="1"/>
<stop offset="1" stop-color="rgb(95.005798%, 94.918823%, 31.855774%)" stop-opacity="1"/>
</linearGradient>
</defs>
<path fill-rule="nonzero" fill="rgb(13.729858%, 12.159729%, 12.548828%)" fill-opacity="1" d="M 225.9375 91.828125 L 125.382812 91.828125 C 123.367188 91.828125 121.730469 90.195312 121.730469 88.179688 L 121.730469 59.527344 C 121.730469 57.511719 123.367188 55.878906 125.382812 55.878906 L 225.9375 55.878906 C 227.953125 55.878906 229.585938 57.511719 229.585938 59.527344 L 229.585938 88.179688 C 229.585938 90.195312 227.953125 91.828125 225.9375 91.828125 "/>
<path fill-rule="nonzero" fill="rgb(100%, 100%, 100%)" fill-opacity="1" d="M 131.476562 72.734375 L 133.644531 64.644531 C 134.269531 62.320312 135.839844 60.945312 138.121094 60.945312 C 140.402344 60.945312 141.238281 62.320312 140.617188 64.644531 L 140.1875 66.238281 L 137.949219 66.238281 L 138.417969 64.492188 C 138.683594 63.503906 138.320312 63.09375 137.609375 63.09375 C 136.902344 63.09375 136.316406 63.503906 136.050781 64.492188 L 133.796875 72.90625 C 133.53125 73.894531 133.902344 74.28125 134.613281 74.28125 C 135.324219 74.28125 135.898438 73.894531 136.164062 72.90625 L 136.753906 70.710938 L 138.992188 70.710938 L 138.449219 72.734375 C 137.824219 75.058594 136.25 76.433594 133.972656 76.433594 C 131.691406 76.433594 130.855469 75.058594 131.476562 72.734375 "/>
<path fill-rule="nonzero" fill="rgb(100%, 100%, 100%)" fill-opacity="1" d="M 144.644531 71.226562 L 145.601562 63.632812 L 142.511719 71.226562 Z M 144.398438 73.273438 L 141.664062 73.273438 L 140.464844 76.21875 L 138.269531 76.21875 L 144.757812 61.160156 L 147.964844 61.160156 L 146.382812 76.21875 L 144.015625 76.21875 Z M 144.398438 73.273438 "/>
<path fill-rule="nonzero" fill="rgb(100%, 100%, 100%)" fill-opacity="1" d="M 148.335938 72.648438 L 151.414062 61.160156 L 153.78125 61.160156 L 150.65625 72.820312 C 150.367188 73.894531 150.714844 74.28125 151.46875 74.28125 C 152.222656 74.28125 152.777344 73.894531 153.066406 72.820312 L 156.1875 61.160156 L 158.46875 61.160156 L 155.390625 72.648438 C 154.746094 75.058594 153.171875 76.433594 150.847656 76.433594 C 148.523438 76.433594 147.6875 75.058594 148.335938 72.648438 "/>
<path fill-rule="nonzero" fill="rgb(100%, 100%, 100%)" fill-opacity="1" d="M 161.425781 63.3125 L 158.953125 63.3125 L 159.527344 61.160156 L 166.84375 61.160156 L 166.265625 63.3125 L 163.792969 63.3125 L 160.332031 76.21875 L 157.964844 76.21875 Z M 161.425781 63.3125 "/>
<path fill-rule="nonzero" fill="rgb(100%, 100%, 100%)" fill-opacity="1" d="M 167.988281 61.160156 L 170.355469 61.160156 L 166.320312 76.21875 L 163.953125 76.21875 Z M 167.988281 61.160156 "/>
<path fill-rule="nonzero" fill="rgb(100%, 100%, 100%)" fill-opacity="1" d="M 173.648438 72.796875 L 175.851562 64.578125 C 176.140625 63.503906 175.773438 63.097656 175.023438 63.097656 C 174.269531 63.097656 173.6875 63.503906 173.398438 64.578125 L 171.195312 72.796875 C 170.90625 73.875 171.273438 74.28125 172.023438 74.28125 C 172.777344 74.28125 173.359375 73.875 173.648438 72.796875 M 168.871094 72.648438 L 170.992188 64.730469 C 171.636719 62.320312 173.273438 60.945312 175.597656 60.945312 C 177.921875 60.945312 178.820312 62.320312 178.175781 64.730469 L 176.054688 72.648438 C 175.410156 75.058594 173.773438 76.433594 171.449219 76.433594 C 169.125 76.433594 168.222656 75.058594 168.871094 72.648438 "/>
<path fill-rule="nonzero" fill="rgb(100%, 100%, 100%)" fill-opacity="1" d="M 180.730469 61.160156 L 183.65625 61.160156 L 183.628906 70.171875 L 186.042969 61.160156 L 188.152344 61.160156 L 184.117188 76.21875 L 181.730469 76.21875 L 181.75 65.226562 L 178.804688 76.21875 L 176.695312 76.21875 Z M 180.730469 61.160156 "/>
<path fill-rule="nonzero" fill="rgb(100%, 100%, 100%)" fill-opacity="1" d="M 194.640625 63.3125 L 192.164062 63.3125 L 192.742188 61.160156 L 200.058594 61.160156 L 199.480469 63.3125 L 197.007812 63.3125 L 193.546875 76.21875 L 191.179688 76.21875 Z M 194.640625 63.3125 "/>
<path fill-rule="nonzero" fill="rgb(100%, 100%, 100%)" fill-opacity="1" d="M 201.921875 71.226562 L 202.882812 63.632812 L 199.792969 71.226562 Z M 201.675781 73.273438 L 198.945312 73.273438 L 197.746094 76.21875 L 195.550781 76.21875 L 202.039062 61.160156 L 205.246094 61.160156 L 203.664062 76.21875 L 201.296875 76.21875 Z M 201.675781 73.273438 "/>
<path fill-rule="nonzero" fill="rgb(100%, 100%, 100%)" fill-opacity="1" d="M 210.492188 67.9375 C 211.242188 67.9375 211.746094 67.589844 212.035156 66.515625 L 212.511719 64.730469 C 212.800781 63.65625 212.484375 63.3125 211.730469 63.3125 L 210.613281 63.3125 L 209.371094 67.9375 Z M 208.820312 61.160156 L 212.304688 61.160156 C 214.671875 61.160156 215.484375 62.472656 214.835938 64.882812 L 214.441406 66.363281 C 213.792969 68.773438 212.28125 70.085938 209.914062 70.085938 L 208.796875 70.085938 L 207.152344 76.21875 L 204.785156 76.21875 Z M 208.820312 61.160156 "/>
<path fill-rule="nonzero" fill="rgb(100%, 100%, 100%)" fill-opacity="1" d="M 217.109375 61.160156 L 223.5625 61.160156 L 222.988281 63.3125 L 218.898438 63.3125 L 217.832031 67.292969 L 221.082031 67.292969 L 220.503906 69.441406 L 217.257812 69.441406 L 216.015625 74.070312 L 220.105469 74.070312 L 219.527344 76.21875 L 213.074219 76.21875 Z M 217.109375 61.160156 "/>
<path fill-rule="nonzero" fill="rgb(100%, 100%, 100%)" fill-opacity="1" d="M 130.519531 82.351562 C 130.960938 82.351562 131.28125 82.15625 131.445312 81.554688 L 131.601562 80.972656 C 131.742188 80.4375 131.625 80.199219 131.203125 80.199219 L 130.667969 80.199219 L 130.089844 82.351562 Z M 129.773438 79.125 L 131.523438 79.125 C 132.75 79.125 133.125 79.695312 132.8125 80.855469 L 132.691406 81.320312 C 132.484375 82.09375 132.101562 82.585938 131.519531 82.804688 L 131.511719 82.824219 C 132.054688 83.007812 132.097656 83.566406 131.871094 84.417969 L 131.515625 85.738281 C 131.417969 86.105469 131.355469 86.375 131.402344 86.652344 L 130.195312 86.652344 C 130.183594 86.460938 130.171875 86.339844 130.335938 85.730469 L 130.707031 84.351562 C 130.894531 83.652344 130.75 83.425781 130.210938 83.425781 L 129.800781 83.425781 L 128.9375 86.652344 L 127.753906 86.652344 Z M 129.773438 79.125 "/>
<path fill-rule="nonzero" fill="rgb(100%, 100%, 100%)" fill-opacity="1" d="M 134.875 84.945312 L 135.976562 80.835938 C 136.117188 80.296875 135.9375 80.09375 135.558594 80.09375 C 135.183594 80.09375 134.894531 80.296875 134.746094 80.835938 L 133.648438 84.945312 C 133.503906 85.480469 133.683594 85.6875 134.0625 85.6875 C 134.4375 85.6875 134.730469 85.480469 134.875 84.945312 M 132.484375 84.867188 L 133.542969 80.910156 C 133.867188 79.703125 134.6875 79.015625 135.847656 79.015625 C 137.007812 79.015625 137.460938 79.703125 137.136719 80.910156 L 136.078125 84.867188 C 135.753906 86.074219 134.933594 86.761719 133.773438 86.761719 C 132.613281 86.761719 132.160156 86.074219 132.484375 84.867188 "/>
<path fill-rule="nonzero" fill="rgb(100%, 100%, 100%)" fill-opacity="1" d="M 138.546875 85.578125 C 138.945312 85.578125 139.207031 85.394531 139.359375 84.835938 L 139.535156 84.179688 C 139.722656 83.480469 139.554688 83.265625 139.015625 83.265625 L 138.488281 83.265625 L 137.867188 85.578125 Z M 139.238281 82.191406 C 139.679688 82.191406 140 81.996094 140.160156 81.394531 L 140.273438 80.972656 C 140.417969 80.4375 140.300781 80.199219 139.878906 80.199219 L 139.308594 80.199219 L 138.777344 82.191406 Z M 138.414062 79.125 L 140.199219 79.125 C 141.425781 79.125 141.800781 79.695312 141.488281 80.855469 L 141.410156 81.15625 C 141.203125 81.929688 140.835938 82.414062 140.25 82.632812 L 140.246094 82.652344 C 140.820312 82.867188 140.917969 83.425781 140.707031 84.222656 L 140.53125 84.867188 C 140.222656 86.03125 139.441406 86.652344 138.257812 86.652344 L 136.398438 86.652344 Z M 138.414062 79.125 "/>
<path fill-rule="nonzero" fill="rgb(100%, 100%, 100%)" fill-opacity="1" d="M 143.527344 84.945312 L 144.628906 80.835938 C 144.773438 80.296875 144.589844 80.09375 144.214844 80.09375 C 143.835938 80.09375 143.546875 80.296875 143.402344 80.835938 L 142.300781 84.945312 C 142.15625 85.480469 142.339844 85.6875 142.714844 85.6875 C 143.089844 85.6875 143.382812 85.480469 143.527344 84.945312 M 141.136719 84.867188 L 142.199219 80.910156 C 142.523438 79.703125 143.339844 79.015625 144.5 79.015625 C 145.664062 79.015625 146.113281 79.703125 145.792969 80.910156 L 144.730469 84.867188 C 144.40625 86.074219 143.589844 86.761719 142.425781 86.761719 C 141.265625 86.761719 140.816406 86.074219 141.136719 84.867188 "/>
<path fill-rule="nonzero" fill="rgb(100%, 100%, 100%)" fill-opacity="1" d="M 147.660156 80.199219 L 146.425781 80.199219 L 146.714844 79.125 L 150.371094 79.125 L 150.082031 80.199219 L 148.84375 80.199219 L 147.117188 86.652344 L 145.933594 86.652344 Z M 147.660156 80.199219 "/>
<path fill-rule="nonzero" fill="rgb(100%, 100%, 100%)" fill-opacity="1" d="M 150.941406 79.125 L 152.125 79.125 L 150.109375 86.652344 L 148.925781 86.652344 Z M 150.941406 79.125 "/>
<path fill-rule="nonzero" fill="rgb(100%, 100%, 100%)" fill-opacity="1" d="M 151.371094 84.910156 L 152.457031 80.867188 C 152.769531 79.707031 153.554688 79.015625 154.695312 79.015625 C 155.835938 79.015625 156.253906 79.707031 155.941406 80.867188 L 155.730469 81.664062 L 154.609375 81.664062 L 154.84375 80.789062 C 154.976562 80.296875 154.792969 80.09375 154.4375 80.09375 C 154.085938 80.09375 153.792969 80.296875 153.660156 80.789062 L 152.53125 84.996094 C 152.398438 85.492188 152.585938 85.683594 152.941406 85.683594 C 153.296875 85.683594 153.582031 85.492188 153.714844 84.996094 L 154.011719 83.898438 L 155.128906 83.898438 L 154.859375 84.910156 C 154.546875 86.074219 153.757812 86.761719 152.621094 86.761719 C 151.480469 86.761719 151.0625 86.074219 151.371094 84.910156 "/>
<path fill-rule="nonzero" fill="rgb(100%, 100%, 100%)" fill-opacity="1" d="M 155.375 84.867188 L 155.492188 84.4375 L 156.609375 84.4375 L 156.472656 84.953125 C 156.328125 85.492188 156.511719 85.683594 156.890625 85.683594 C 157.265625 85.683594 157.566406 85.492188 157.714844 84.933594 C 157.882812 84.308594 157.726562 83.921875 157.136719 83.242188 C 156.378906 82.371094 156.210938 81.75 156.441406 80.886719 C 156.757812 79.707031 157.558594 79.015625 158.710938 79.015625 C 159.859375 79.015625 160.246094 79.707031 159.921875 80.910156 L 159.839844 81.222656 L 158.71875 81.222656 L 158.824219 80.835938 C 158.96875 80.296875 158.808594 80.09375 158.429688 80.09375 C 158.054688 80.09375 157.773438 80.296875 157.636719 80.8125 C 157.488281 81.359375 157.65625 81.75 158.246094 82.425781 C 159.003906 83.296875 159.160156 83.910156 158.910156 84.847656 C 158.582031 86.074219 157.773438 86.761719 156.613281 86.761719 C 155.449219 86.761719 155.054688 86.074219 155.375 84.867188 "/>
<g clip-path="url(#clip-0)">
<g clip-path="url(#clip-1)">
<path fill-rule="nonzero" fill="url(#linear-pattern-0)" d="M 161.238281 79.015625 L 161.238281 86.761719 L 218.769531 86.761719 L 218.769531 79.015625 Z M 161.238281 79.015625 "/>
</g>
</g>
</svg>
