<?xml version="1.0" encoding="UTF-8"?>
<svg xmlns="http://www.w3.org/2000/svg" xmlns:xlink="http://www.w3.org/1999/xlink" width="293" height="37" viewBox="38 56 293 37">
<path fill-rule="nonzero" fill="rgb(95.97168%, 85.844421%, 0.947571%)" fill-opacity="1" d="M 43.859375 58.304688 L 324.945312 58.304688 C 326.746094 58.304688 328.207031 59.765625 328.207031 61.566406 L 328.207031 87.402344 C 328.207031 89.203125 326.746094 90.660156 324.945312 90.660156 L 43.859375 90.660156 C 42.058594 90.660156 40.597656 89.203125 40.597656 87.402344 L 40.597656 61.566406 C 40.597656 59.765625 42.058594 58.304688 43.859375 58.304688 "/>
<path fill-rule="nonzero" fill="rgb(13.729858%, 12.159729%, 12.548828%)" fill-opacity="1" d="M 322.582031 63.398438 L 316.113281 63.398438 L 310.265625 85.566406 L 316.734375 85.566406 Z M 310.863281 63.398438 L 304.394531 63.398438 L 298.542969 85.566406 L 305.015625 85.566406 Z M 299.144531 63.398438 L 292.671875 63.398438 L 286.824219 85.566406 L 293.292969 85.566406 Z M 281.574219 85.566406 L 275.105469 85.566406 L 280.953125 63.398438 L 287.421875 63.398438 Z M 281.574219 85.566406 "/>
<path fill-rule="nonzero" fill="rgb(13.729858%, 12.159729%, 12.548828%)" fill-opacity="1" d="M 46.507812 80.269531 L 49.609375 68.695312 C 50.5 65.371094 52.753906 63.398438 56.019531 63.398438 C 59.28125 63.398438 60.476562 65.371094 59.585938 68.695312 L 58.972656 70.976562 L 55.773438 70.976562 L 56.441406 68.480469 C 56.820312 67.0625 56.300781 66.476562 55.285156 66.476562 C 54.269531 66.476562 53.433594 67.0625 53.054688 68.480469 L 49.828125 80.519531 C 49.449219 81.9375 49.976562 82.492188 50.996094 82.492188 C 52.011719 82.492188 52.835938 81.9375 53.214844 80.519531 L 54.058594 77.378906 L 57.257812 77.378906 L 56.484375 80.269531 C 55.59375 83.597656 53.34375 85.566406 50.078125 85.566406 C 46.8125 85.566406 45.617188 83.597656 46.507812 80.269531 "/>
<path fill-rule="nonzero" fill="rgb(13.729858%, 12.159729%, 12.548828%)" fill-opacity="1" d="M 65.351562 78.117188 L 66.722656 67.246094 L 62.300781 78.117188 Z M 65 81.039062 L 61.089844 81.039062 L 59.375 85.261719 L 56.234375 85.261719 L 65.515625 63.707031 L 70.105469 63.707031 L 67.839844 85.261719 L 64.453125 85.261719 Z M 65 81.039062 "/>
<path fill-rule="nonzero" fill="rgb(13.729858%, 12.159729%, 12.548828%)" fill-opacity="1" d="M 70.628906 80.148438 L 75.035156 63.707031 L 78.421875 63.707031 L 73.953125 80.398438 C 73.539062 81.9375 74.039062 82.492188 75.113281 82.492188 C 76.191406 82.492188 76.988281 81.9375 77.402344 80.398438 L 81.871094 63.707031 L 85.136719 63.707031 L 80.730469 80.148438 C 79.808594 83.597656 77.554688 85.566406 74.230469 85.566406 C 70.902344 85.566406 69.707031 83.597656 70.628906 80.148438 "/>
<path fill-rule="nonzero" fill="rgb(13.729858%, 12.159729%, 12.548828%)" fill-opacity="1" d="M 89.367188 66.785156 L 85.828125 66.785156 L 86.652344 63.707031 L 97.121094 63.707031 L 96.296875 66.785156 L 92.757812 66.785156 L 87.804688 85.261719 L 84.417969 85.261719 Z M 89.367188 66.785156 "/>
<path fill-rule="nonzero" fill="rgb(13.729858%, 12.159729%, 12.548828%)" fill-opacity="1" d="M 98.757812 63.707031 L 102.140625 63.707031 L 96.367188 85.261719 L 92.980469 85.261719 Z M 98.757812 63.707031 "/>
<path fill-rule="nonzero" fill="rgb(13.729858%, 12.159729%, 12.548828%)" fill-opacity="1" d="M 106.859375 80.363281 L 110.011719 68.605469 C 110.421875 67.0625 109.902344 66.476562 108.824219 66.476562 C 107.746094 66.476562 106.914062 67.0625 106.5 68.605469 L 103.347656 80.363281 C 102.9375 81.902344 103.457031 82.488281 104.535156 82.488281 C 105.613281 82.488281 106.445312 81.902344 106.859375 80.363281 M 100.019531 80.148438 L 103.054688 68.820312 C 103.980469 65.371094 106.324219 63.398438 109.652344 63.398438 C 112.976562 63.398438 114.265625 65.371094 113.339844 68.820312 L 110.304688 80.148438 C 109.378906 83.597656 107.039062 85.570312 103.710938 85.570312 C 100.386719 85.570312 99.097656 83.597656 100.019531 80.148438 "/>
<path fill-rule="nonzero" fill="rgb(13.729858%, 12.159729%, 12.548828%)" fill-opacity="1" d="M 116.996094 63.707031 L 121.183594 63.707031 L 121.144531 76.609375 L 124.601562 63.707031 L 127.617188 63.707031 L 121.84375 85.261719 L 118.425781 85.261719 L 118.453125 69.527344 L 114.238281 85.261719 L 111.222656 85.261719 Z M 116.996094 63.707031 "/>
<path fill-rule="nonzero" fill="rgb(13.729858%, 12.159729%, 12.548828%)" fill-opacity="1" d="M 136.898438 66.785156 L 133.355469 66.785156 L 134.183594 63.707031 L 144.652344 63.707031 L 143.824219 66.785156 L 140.285156 66.785156 L 135.335938 85.261719 L 131.949219 85.261719 Z M 136.898438 66.785156 "/>
<path fill-rule="nonzero" fill="rgb(13.729858%, 12.159729%, 12.548828%)" fill-opacity="1" d="M 147.324219 78.117188 L 148.695312 67.246094 L 144.273438 78.117188 Z M 146.96875 81.039062 L 143.058594 81.039062 L 141.34375 85.261719 L 138.203125 85.261719 L 147.488281 63.707031 L 152.078125 63.707031 L 149.8125 85.261719 L 146.425781 85.261719 Z M 146.96875 81.039062 "/>
<path fill-rule="nonzero" fill="rgb(13.729858%, 12.159729%, 12.548828%)" fill-opacity="1" d="M 159.582031 73.40625 C 160.660156 73.40625 161.378906 72.914062 161.789062 71.375 L 162.472656 68.820312 C 162.886719 67.28125 162.433594 66.785156 161.355469 66.785156 L 159.753906 66.785156 L 157.980469 73.40625 Z M 157.195312 63.707031 L 162.183594 63.707031 C 165.570312 63.707031 166.730469 65.585938 165.804688 69.035156 L 165.234375 71.15625 C 164.3125 74.609375 162.144531 76.484375 158.757812 76.484375 L 157.15625 76.484375 L 154.804688 85.261719 L 151.421875 85.261719 Z M 157.195312 63.707031 "/>
<path fill-rule="nonzero" fill="rgb(13.729858%, 12.159729%, 12.548828%)" fill-opacity="1" d="M 169.054688 63.707031 L 178.292969 63.707031 L 177.46875 66.785156 L 171.617188 66.785156 L 170.089844 72.480469 L 174.738281 72.480469 L 173.914062 75.5625 L 169.265625 75.5625 L 167.492188 82.179688 L 173.339844 82.179688 L 172.515625 85.261719 L 163.28125 85.261719 Z M 169.054688 63.707031 "/>
<path fill-rule="nonzero" fill="rgb(13.729858%, 12.159729%, 12.548828%)" fill-opacity="1" d="M 187.1875 72.945312 C 188.449219 72.945312 189.367188 72.390625 189.828125 70.667969 L 190.273438 69.003906 C 190.6875 67.464844 190.347656 66.785156 189.144531 66.785156 L 187.605469 66.785156 L 185.953125 72.945312 Z M 185.042969 63.707031 L 190.058594 63.707031 C 193.570312 63.707031 194.640625 65.339844 193.75 68.664062 L 193.398438 69.988281 C 192.800781 72.207031 191.714844 73.621094 190.042969 74.238281 L 190.023438 74.300781 C 191.578125 74.824219 191.703125 76.421875 191.050781 78.855469 L 190.039062 82.644531 C 189.757812 83.691406 189.582031 84.460938 189.707031 85.261719 L 186.253906 85.261719 C 186.222656 84.707031 186.1875 84.367188 186.660156 82.613281 L 187.714844 78.671875 C 188.25 76.671875 187.839844 76.023438 186.296875 76.023438 L 185.128906 76.023438 L 182.652344 85.261719 L 179.269531 85.261719 Z M 185.042969 63.707031 "/>
<path fill-rule="nonzero" fill="rgb(13.729858%, 12.159729%, 12.548828%)" fill-opacity="1" d="M 199.644531 80.363281 L 202.792969 68.605469 C 203.207031 67.0625 202.6875 66.476562 201.609375 66.476562 C 200.53125 66.476562 199.699219 67.0625 199.285156 68.605469 L 196.132812 80.363281 C 195.722656 81.902344 196.242188 82.488281 197.320312 82.488281 C 198.398438 82.488281 199.230469 81.902344 199.644531 80.363281 M 192.804688 80.148438 L 195.839844 68.820312 C 196.765625 65.371094 199.109375 63.398438 202.433594 63.398438 C 205.761719 63.398438 207.046875 65.371094 206.125 68.820312 L 203.089844 80.148438 C 202.164062 83.597656 199.820312 85.570312 196.492188 85.570312 C 193.171875 85.570312 191.878906 83.597656 192.804688 80.148438 "/>
<path fill-rule="nonzero" fill="rgb(13.729858%, 12.159729%, 12.548828%)" fill-opacity="1" d="M 210.15625 82.179688 C 211.296875 82.179688 212.050781 81.65625 212.480469 80.054688 L 212.984375 78.179688 C 213.519531 76.175781 213.039062 75.5625 211.5 75.5625 L 209.988281 75.5625 L 208.214844 82.179688 Z M 212.140625 72.480469 C 213.402344 72.480469 214.320312 71.925781 214.78125 70.203125 L 215.101562 69.003906 C 215.515625 67.460938 215.171875 66.785156 213.972656 66.785156 L 212.339844 66.785156 L 210.8125 72.480469 Z M 209.78125 63.707031 L 214.890625 63.707031 C 218.398438 63.707031 219.472656 65.339844 218.582031 68.664062 L 218.347656 69.527344 C 217.753906 71.746094 216.707031 73.128906 215.03125 73.746094 L 215.015625 73.804688 C 216.667969 74.421875 216.945312 76.023438 216.335938 78.300781 L 215.839844 80.148438 C 214.949219 83.476562 212.71875 85.261719 209.332031 85.261719 L 204.003906 85.261719 Z M 209.78125 63.707031 "/>
<path fill-rule="nonzero" fill="rgb(13.729858%, 12.159729%, 12.548828%)" fill-opacity="1" d="M 224.414062 80.363281 L 227.5625 68.605469 C 227.976562 67.0625 227.457031 66.476562 226.378906 66.476562 C 225.300781 66.476562 224.46875 67.0625 224.054688 68.605469 L 220.902344 80.363281 C 220.492188 81.902344 221.011719 82.488281 222.089844 82.488281 C 223.167969 82.488281 224 81.902344 224.414062 80.363281 M 217.574219 80.148438 L 220.609375 68.820312 C 221.535156 65.371094 223.878906 63.398438 227.203125 63.398438 C 230.53125 63.398438 231.816406 65.371094 230.894531 68.820312 L 227.855469 80.148438 C 226.933594 83.597656 224.589844 85.570312 221.261719 85.570312 C 217.941406 85.570312 216.648438 83.597656 217.574219 80.148438 "/>
<path fill-rule="nonzero" fill="rgb(13.729858%, 12.159729%, 12.548828%)" fill-opacity="1" d="M 236.25 66.785156 L 232.707031 66.785156 L 233.53125 63.707031 L 244 63.707031 L 243.175781 66.785156 L 239.636719 66.785156 L 234.6875 85.261719 L 231.296875 85.261719 Z M 236.25 66.785156 "/>
<path fill-rule="nonzero" fill="rgb(13.729858%, 12.159729%, 12.548828%)" fill-opacity="1" d="M 245.636719 63.707031 L 249.023438 63.707031 L 243.246094 85.261719 L 239.863281 85.261719 Z M 245.636719 63.707031 "/>
<path fill-rule="nonzero" fill="rgb(13.729858%, 12.159729%, 12.548828%)" fill-opacity="1" d="M 246.867188 80.269531 L 249.96875 68.695312 C 250.859375 65.371094 253.109375 63.398438 256.375 63.398438 C 259.640625 63.398438 260.832031 65.371094 259.941406 68.695312 L 259.332031 70.976562 L 256.128906 70.976562 L 256.800781 68.480469 C 257.179688 67.0625 256.660156 66.476562 255.644531 66.476562 C 254.625 66.476562 253.792969 67.0625 253.410156 68.480469 L 250.1875 80.519531 C 249.804688 81.9375 250.335938 82.492188 251.351562 82.492188 C 252.367188 82.492188 253.191406 81.9375 253.574219 80.519531 L 254.414062 77.378906 L 257.617188 77.378906 L 256.839844 80.269531 C 255.949219 83.597656 253.699219 85.566406 250.433594 85.566406 C 247.171875 85.566406 245.972656 83.597656 246.867188 80.269531 "/>
<path fill-rule="nonzero" fill="rgb(13.729858%, 12.159729%, 12.548828%)" fill-opacity="1" d="M 258.328125 80.148438 L 258.65625 78.917969 L 261.859375 78.917969 L 261.460938 80.398438 C 261.050781 81.9375 261.582031 82.492188 262.65625 82.492188 C 263.734375 82.492188 264.59375 81.9375 265.023438 80.335938 C 265.5 78.546875 265.058594 77.441406 263.359375 75.5 C 261.195312 73.007812 260.71875 71.222656 261.378906 68.757812 C 262.289062 65.371094 264.570312 63.398438 267.863281 63.398438 C 271.160156 63.398438 272.261719 65.371094 271.339844 68.820312 L 271.101562 69.710938 L 267.898438 69.710938 L 268.195312 68.605469 C 268.609375 67.0625 268.148438 66.476562 267.074219 66.476562 C 265.996094 66.476562 265.191406 67.0625 264.796875 68.542969 C 264.375 70.113281 264.847656 71.222656 266.542969 73.160156 C 268.707031 75.652344 269.160156 77.40625 268.441406 80.089844 C 267.5 83.597656 265.1875 85.566406 261.863281 85.566406 C 258.539062 85.566406 257.402344 83.597656 258.328125 80.148438 "/>
</svg>
